PathFileType  4	(X/Y/Z) C:\Users\antoi\Documents\MyRepositories\mobilecap\ResultsAnalysis
DataRate	CameraRate	NumFrames	NumMarkers	Units	OrigDataRate	OrigDataStartFrame	OrigNumFrames
100.0	100.0	4	51	mm	100.0	20	154
Frame#	Time	r_knee			r_shank_antsup			r_ankle			r_calc			r_5meta			r_toe			L_knee			L_shank_antsup			L_ankle			L_calc			L_5meta			L_toe			r_sh2			r_sh3			r_sh4			L_sh2			L_sh3			r_thigh1			r_thigh2			r_thigh3			r_thigh4			r_thigh5			L_thigh1			L_thigh2			L_thigh3			L_thigh4			r.ASIS			r.PSIS			L.ASIS			L.PSIS			C7			R_Shoulder			L_Shoulder			R_Sternum			L_Sternum			R_humerus			R_elbow_med			R_elbow_lat			R_forearm			R_wrist_radius			R_wrist_ulna			L_humerus			L_elbow_med			L_elbow_lat			L_forearm			L_wrist_radius			L_wrist_ulna			R_HJC			L_HJC			R_HJC_reg			L_HJC_reg			
		X1	Y1	Z1	X2	Y2	Z2	X3	Y3	Z3	X4	Y4	Z4	X5	Y5	Z5	X6	Y6	Z6	X7	Y7	Z7	X8	Y8	Z8	X9	Y9	Z9	X10	Y10	Z10	X11	Y11	Z11	X12	Y12	Z12	X13	Y13	Z13	X14	Y14	Z14	X15	Y15	Z15	X16	Y16	Z16	X17	Y17	Z17	X18	Y18	Z18	X19	Y19	Z19	X20	Y20	Z20	X21	Y21	Z21	X22	Y22	Z22	X23	Y23	Z23	X24	Y24	Z24	X25	Y25	Z25	X26	Y26	Z26	X27	Y27	Z27	X28	Y28	Z28	X29	Y29	Z29	X30	Y30	Z30	X31	Y31	Z31	X32	Y32	Z32	X33	Y33	Z33	X34	Y34	Z34	X35	Y35	Z35	X36	Y36	Z36	X37	Y37	Z37	X38	Y38	Z38	X39	Y39	Z39	X40	Y40	Z40	X41	Y41	Z41	X42	Y42	Z42	X43	Y43	Z43	X44	Y44	Z44	X45	Y45	Z45	X46	Y46	Z46	X47	Y47	Z47	X48	Y48	Z48	X49	Y49	Z49	X50	Y50	Z50	X51	Y51	Z51	

20	0.19000000	140.80082	467.09989	-127.06890	184.23855	410.07852	-139.49536	142.40731	82.87280	-161.46143	88.20689	55.82757	-202.02618	252.23971	43.42662	-137.76487	294.77407	62.66037	-192.12041	-41.88852	426.39702	-400.10611	-77.35495	342.23224	-385.83800	-362.45456	225.09484	-345.94248	-404.92815	269.10808	-293.83277	-385.61257	104.46579	-356.53796	-334.73876	71.57872	-312.19271	180.10346	297.86172	-135.07399	116.97163	413.16120	-99.73462	103.56623	297.26097	-100.29118	-113.69697	417.53290	-417.73306	-219.55527	356.40312	-410.36195	125.08278	713.26584	-70.08059	154.35419	605.04405	-94.39959	97.56249	566.63934	-88.33565	15.05859	680.00669	-63.02231	42.86892	573.93577	-102.00532	22.88253	698.57075	-427.87859	22.26418	559.46811	-415.32193	-88.12362	698.56769	-420.31369	-87.29468	565.93873	-383.91587	112.81626	908.83600	-142.60306	-111.80566	934.11050	-195.02070	81.39507	884.29718	-362.86284	-116.85090	927.50104	-276.46666	-19.25223	1371.04197	-217.07884	54.24748	1322.44327	-80.29297	12.28052	1347.42728	-363.71268	109.32672	1302.39133	-211.75126	103.01273	1304.74984	-250.84289	76.95854	1204.61016	-25.53169	-33.38505	1009.40711	-22.34355	9.38830	1015.95130	27.55025	70.36384	942.51412	33.88211	106.84541	800.69296	28.97024	79.25377	797.77958	58.22654	0.66660	1251.94822	-442.94090	-60.14494	1034.90824	-438.25469	-46.85198	1061.34638	-497.66270	1.52866	974.61852	-540.26632	23.84238	847.69457	-560.77720	-11.31646	850.57068	-582.40948	25.11560	823.32743	-130.91742	0.31313	803.17151	-335.96831	31.02490	834.44559	-162.01357	21.93592	822.51806	-308.98619	
21	0.20000000	144.96134	467.18560	-127.93741	187.61111	409.67836	-140.07899	142.39997	83.01994	-161.91091	88.10961	55.96233	-202.21148	252.21330	43.65128	-137.89659	294.82317	62.61459	-192.37292	-15.42888	427.22438	-402.58854	-51.05324	343.43486	-387.51243	-337.80814	231.79360	-346.57222	-380.19929	274.71543	-293.27272	-360.51493	111.87061	-359.79398	-309.38305	78.15978	-316.18938	182.40253	297.52192	-135.67415	120.21414	413.32214	-100.54786	105.68586	297.56102	-101.12685	-86.61832	418.87685	-419.73881	-193.20039	359.17373	-411.90822	133.45846	713.73701	-71.10966	161.02086	604.88271	-95.53604	103.57391	567.56423	-89.24323	23.22578	682.47530	-64.08199	48.87065	575.63626	-102.61517	39.00411	701.42946	-428.36617	43.39369	562.29995	-416.94885	-72.05978	697.52181	-420.91075	-66.05537	564.61201	-385.44632	123.18028	909.69115	-142.71359	-100.82299	936.35752	-194.47484	91.97085	886.97867	-362.75061	-106.46243	929.52095	-275.99353	-8.04142	1372.96497	-214.80879	66.13153	1323.62151	-78.79531	22.45671	1350.62431	-361.70864	120.48444	1304.63455	-210.66604	114.03957	1307.26835	-249.64857	90.27512	1205.61736	-25.04049	-18.51908	1009.38689	-21.64263	24.73329	1016.05809	27.67077	86.49550	943.24805	32.91025	124.38754	801.83032	26.75412	96.99802	798.48476	56.26333	11.25805	1255.79102	-441.83964	-48.17814	1038.35978	-439.77870	-34.69394	1065.58602	-498.77723	14.26730	979.64631	-542.13702	37.54662	853.11006	-563.88989	2.40169	856.05611	-585.70944	35.55184	824.44749	-131.30857	10.54447	805.73067	-336.44622	41.65359	837.12494	-161.53291	31.52641	824.82910	-308.11624	
22	0.21000000	149.12036	467.42738	-128.53672	191.10475	409.41561	-140.75393	142.36115	83.11033	-162.14847	87.95896	56.17407	-202.24682	252.19257	43.78161	-137.93071	294.84318	62.60500	-192.49145	10.99728	429.02666	-404.62368	-24.51758	345.33927	-388.80220	-312.06227	237.48789	-347.10648	-355.38517	278.53606	-292.93122	-332.35443	118.13017	-363.34771	-280.90477	84.32127	-320.13264	184.87418	297.31797	-136.29017	123.85564	413.59932	-100.97563	108.24377	298.00411	-101.42619	-59.60657	420.79477	-421.34110	-166.61958	362.02538	-413.12621	141.59249	714.43057	-72.09916	167.58094	605.02611	-96.53087	109.58310	568.65360	-89.88218	31.19715	684.93321	-64.90095	54.86906	577.41013	-102.90364	54.88214	704.83349	-428.91674	64.31493	565.93302	-418.46652	-56.06696	697.09381	-421.32292	-44.94472	564.13891	-386.66267	133.29694	910.43079	-143.31948	-89.92919	938.85733	-193.54038	102.19020	889.96032	-363.14060	-96.23935	931.85130	-275.04690	2.99970	1375.00256	-212.73334	77.77238	1324.95594	-77.44826	32.47420	1353.77341	-359.88974	131.43554	1306.86801	-209.72715	124.88006	1309.78764	-248.63327	103.30781	1206.81415	-24.61778	-3.69001	1009.50189	-21.06583	40.05053	1016.34341	27.68621	102.62185	944.20116	31.84694	141.97407	803.25681	24.50682	114.82100	799.46677	54.25445	21.67495	1259.57589	-440.84302	-36.56297	1041.79958	-441.50184	-22.79982	1069.82190	-500.03326	27.03620	984.67453	-543.98942	51.55220	858.58955	-566.92825	16.45594	861.48613	-588.91715	45.97886	825.50024	-132.01170	20.19883	808.65756	-337.19136	51.99450	839.94243	-161.53072	40.68509	827.37320	-307.71217	
23	0.22000000	153.33553	467.78819	-128.91109	194.76613	409.25174	-141.52204	142.34098	83.18142	-162.22659	87.81566	56.44908	-202.17510	252.19291	43.83565	-137.89293	294.84575	62.59289	-192.50792	37.33401	431.73365	-406.21436	2.18642	347.87354	-389.76510	-285.36019	241.96662	-347.63852	-330.35857	280.66233	-292.91428	-301.83434	123.06648	-367.00433	-249.96532	89.73167	-323.87829	187.54231	297.20490	-136.94859	127.90145	413.96090	-101.09839	111.23059	298.55474	-101.31425	-32.76162	423.21230	-422.57832	-139.90800	364.81446	-414.05952	149.62308	715.27508	-73.01181	174.09427	605.40197	-97.36645	115.63113	569.85827	-90.26070	39.03633	687.33551	-65.37726	60.90423	579.23407	-102.88796	70.51636	708.70327	-429.52008	85.06026	570.27966	-419.87381	-40.13178	697.17420	-421.58060	-24.00897	564.42626	-387.67790	143.28887	911.24609	-144.32954	-79.15220	941.56577	-192.39366	112.09941	893.16925	-363.96458	-86.13120	934.42861	-273.81706	13.88282	1377.14965	-210.86297	89.17860	1326.43101	-76.24521	42.44067	1356.86695	-358.24846	142.20938	1309.07034	-208.91184	135.56858	1312.27830	-247.77007	116.06904	1208.19228	-24.27405	11.08876	1009.75724	-20.62964	55.32293	1016.81264	27.60284	118.74242	945.37450	30.69735	159.56739	804.94813	22.22113	132.71738	800.72522	52.19268	31.98266	1263.31674	-439.95477	-25.27046	1045.27941	-443.33507	-11.18380	1074.06934	-501.37631	39.77631	989.69789	-545.77721	65.76884	864.12024	-569.82169	30.74399	866.87179	-591.96010	56.43380	826.63558	-132.95787	29.44121	811.85692	-338.12716	62.11245	842.88194	-161.95249	49.61524	830.09618	-307.76802	
